<?xml version="1.0" encoding="utf-8"?>
<!-- Generator: Adobe Illustrator 21.1.0, SVG Export Plug-In . SVG Version: 6.00 Build 0)  -->
<svg version="1.1" id="Layer_1" xmlns="http://www.w3.org/2000/svg" xmlns:xlink="http://www.w3.org/1999/xlink" x="0px" y="0px"
	 viewBox="0 0 1394.6 170.1" style="enable-background:new 0 0 1394.6 170.1;" xml:space="preserve">
<style type="text/css">
	.st0{fill:#888B90;}
	.st1{fill:#101820;}
	.st2{fill:url(#SVGID_1_);}
</style>
<g>
	<g>
		<path class="st0" d="M240.3,130.3h23v4.9h-17.5v8.1h15.5v4.9h-15.5v8.3h17.7v4.9h-23.2V130.3z"/>
		<path class="st0" d="M289.1,145.5l-10.8-15.2h6.4l7.7,11.1l7.7-11.1h6.2l-10.8,15.1l11.2,15.8h-6.4l-8.1-11.7l-8.2,11.7h-6.2
			L289.1,145.5z"/>
		<path class="st0" d="M321.8,130.3H334c7.2,0,11.8,4.1,11.8,10.4v0.1c0,6.9-5.6,10.6-12.4,10.6h-6.1v10h-5.4v-31.1H321.8z
			 M333.6,146.4c4.1,0,6.7-2.3,6.7-5.5v-0.1c0-3.6-2.6-5.5-6.7-5.5h-6.3v11.1H333.6z"/>
		<path class="st0" d="M361,130.3h23v4.9h-17.5v8.1H382v4.9h-15.5v8.3h17.7v4.9H361V130.3z"/>
		<path class="st0" d="M400.8,130.3h13.8c3.9,0,6.9,1.1,8.9,3.1c1.6,1.7,2.6,4,2.6,6.7v0.1c0,5.1-3.1,8.1-7.4,9.4l8.4,11.7h-6.4
			l-7.6-10.8h-6.8v10.8h-5.4v-31H400.8z M414.2,145.6c3.9,0,6.4-2,6.4-5.2v-0.1c0-3.3-2.4-5.1-6.4-5.1h-7.9v10.4L414.2,145.6
			L414.2,145.6z"/>
		<path class="st0" d="M442.8,130.3h5.4v31h-5.4V130.3z"/>
		<path class="st0" d="M466.4,130.3h23v4.9h-17.5v8.1h15.5v4.9h-15.5v8.3h17.7v4.9h-23.2V130.3z"/>
		<path class="st0" d="M506.2,130.3h5l16.6,21.4v-21.4h5.4v31h-4.6l-17.1-22v22h-5.4L506.2,130.3L506.2,130.3z"/>
		<path class="st0" d="M549.7,145.9L549.7,145.9c0-8.9,6.6-16.1,16-16.1c5.7,0,9.2,2,12.1,4.8l-3.5,4c-2.5-2.3-5.1-3.8-8.7-3.8
			c-5.9,0-10.2,4.9-10.2,10.9v0.1c0,6.1,4.3,11,10.2,11c3.8,0,6.2-1.5,8.9-4l3.5,3.5c-3.2,3.4-6.8,5.5-12.6,5.5
			C556.4,161.8,549.7,154.8,549.7,145.9z"/>
		<path class="st0" d="M593.3,130.3h23v4.9h-17.5v8.1h15.5v4.9h-15.5v8.3h17.7v4.9h-23.2V130.3z"/>
		<path class="st0" d="M656,130.3h5.4v31H656V130.3z"/>
		<path class="st0" d="M679.6,130.3h5l16.6,21.4v-21.4h5.4v31H702l-17.1-22v22h-5.4L679.6,130.3L679.6,130.3z"/>
		<path class="st0" d="M724.7,130.3h5l16.6,21.4v-21.4h5.4v31h-4.6l-17.1-22v22h-5.4L724.7,130.3L724.7,130.3z"/>
		<path class="st0" d="M768.1,145.9L768.1,145.9c0-8.8,6.7-16.1,16.2-16.1s16.1,7.2,16.1,15.9v0.1c0,8.7-6.7,16-16.2,16
			C774.8,161.8,768.1,154.6,768.1,145.9z M794.8,145.9L794.8,145.9c0-6.1-4.4-11.1-10.5-11.1s-10.4,4.9-10.4,10.9v0.1
			c0,6,4.4,11,10.5,11C790.5,156.8,794.8,151.9,794.8,145.9z"/>
		<path class="st0" d="M812.4,130.3h6l9.3,23.8l9.3-23.8h5.9L830,161.5h-4.8L812.4,130.3z"/>
		<path class="st0" d="M865.5,130.1h5l13.6,31.2h-5.7l-3.1-7.5h-14.6l-3.2,7.5h-5.6L865.5,130.1z M873.3,149l-5.4-12.4l-5.3,12.4
			H873.3z"/>
		<path class="st0" d="M902.9,135.3h-9.8v-5h25.1v5h-9.8v25.9h-5.5V135.3z"/>
		<path class="st0" d="M933.4,130.3h5.4v31h-5.4V130.3z"/>
		<path class="st0" d="M955.5,145.9L955.5,145.9c0-8.8,6.7-16.1,16.2-16.1s16.1,7.2,16.1,15.9v0.1c0,8.7-6.7,16-16.2,16
			C962.1,161.8,955.5,154.6,955.5,145.9z M982.1,145.9L982.1,145.9c0-6.1-4.4-11.1-10.5-11.1s-10.4,4.9-10.4,10.9v0.1
			c0,6,4.4,11,10.5,11C977.8,156.8,982.1,151.9,982.1,145.9z"/>
		<path class="st0" d="M1004.4,130.3h5l16.6,21.4v-21.4h5.4v31h-4.6l-17.1-22v22h-5.4L1004.4,130.3L1004.4,130.3z"/>
	</g>
	<g>
		<g>
			<path class="st1" d="M229.9,47.6c0-22,15.5-39.1,34.9-39.1c9.8,0,16.9,3.8,21.5,9.1l2.2-8.7h6v28.4h-5.3
				c-4.7-14-12.2-22.4-24.2-22.4c-14,0-24,11.2-24,32.1c0,21.6,10.1,33.5,25.3,33.5c13.4,0,21.9-10.2,24-24.6h6.4
				c-2.2,19.9-14.3,31.1-32,31.1C244,87,229.9,70.6,229.9,47.6z"/>
			<path class="st1" d="M301.6,72.5c0-3.3,1.1-6.7,3.6-9.2c4-4,9.5-5.5,19.6-7.1c7-1.1,8.2-1.4,8.2-3.3v-5.1
				c0-7.6-3.8-10.3-10.7-10.3c-4,0-7.5,1-9.9,3c2,1,3.1,2.9,3.1,5.3c0,3.3-2.3,5.9-6,5.9s-6.1-2.6-6.1-6.2c0-7.5,9.6-12.7,20.3-12.7
				c11.8,0,18.1,5.1,18.1,15.5v27c0,3.6,1.1,4.6,3.4,4.6c2,0,3.3-1.6,4.6-4.6l3.4,2c-2.6,5.9-5.5,8.6-10.7,8.6
				c-4.7,0-8.6-2.8-8.7-9.5h-0.3c-3.4,5.9-10.2,9.8-17.2,9.8C307,86,301.6,80.6,301.6,72.5z M333,68.9V58.6c-1,0.3-2.9,0.7-5.6,1.1
				c-11.7,1.8-16,4.2-16,11.1c0,5.7,3,9,9,9C326.4,79.9,333,74.8,333,68.9z"/>
			<path class="st1" d="M349.5,96.4h8.6V39.5h-8.6v-6h17.2v12.1c4-9.1,10.6-13,17.7-13c5.3,0,9.2,1.7,12.6,5.2
				c4.7,4.7,7,12.2,7,20.7c0,8.6-2.9,16.4-7.7,21.2c-3.4,3.4-7.8,5.5-13.1,5.5c-7.8,0-13.3-4.7-16.3-10.6v21.8h11.3v6h-28.7V96.4z
				 M394.3,58.2c0-14.1-6-19.6-12.9-19.6c-7.7,0-14.7,9.1-14.7,21.2c0,11.1,5.6,19.3,14.2,19.3C388.9,79.1,394.3,72,394.3,58.2z"/>
			<path class="st1" d="M406.1,79.2h9.8V39.5h-9.8v-6h18.6v45.7h9.8v6h-28.4V79.2z M413.1,15.4c0-3.8,2.6-6.7,6.5-6.7
				c3.6,0,6.3,2.6,6.3,6.5s-2.8,6.5-6.3,6.5C415.9,21.8,413.1,19.4,413.1,15.4z"/>
			<path class="st1" d="M450.1,18.9v14.9H467v5.6h-16.9V72c0,5.2,2,8,6.4,8c3.9,0,6.4-3,8.6-9.2l4.1,1.6c-2.9,10.1-8.3,13.8-15,13.8
				c-8.7,0-13.1-5.3-13.1-14V39.5h-10.4v-5.6h10.4V20.1L450.1,18.9z"/>
			<path class="st1" d="M472.3,72.5c0-3.3,1.1-6.7,3.6-9.2c4-4,9.5-5.5,19.6-7.1c7-1.1,8.2-1.4,8.2-3.3v-5.1
				c0-7.6-3.8-10.3-10.7-10.3c-4,0-7.5,1-9.9,3c2,1,3.1,2.9,3.1,5.3c0,3.3-2.3,5.9-6,5.9s-6.1-2.6-6.1-6.2c0-7.5,9.6-12.7,20.3-12.7
				c11.8,0,18.1,5.1,18.1,15.5v27c0,3.6,1.1,4.6,3.4,4.6c2,0,3.3-1.6,4.6-4.6l3.4,2c-2.6,5.9-5.5,8.6-10.7,8.6
				c-4.7,0-8.6-2.8-8.7-9.5h-0.3c-3.4,5.9-10.2,9.8-17.2,9.8C477.7,86,472.3,80.6,472.3,72.5z M503.7,68.9V58.6
				c-1,0.3-2.9,0.7-5.6,1.1c-11.7,1.8-16,4.2-16,11.1c0,5.7,3,9,9,9C497.1,79.9,503.7,74.8,503.7,68.9z"/>
			<path class="st1" d="M524.5,79.2h9.8V12.5h-9.8V6.3h18.7v72.9h9.6v6h-28.4v-6H524.5z"/>
			<path class="st1" d="M572.3,79.2H585v-63h-12.7v-5.9h33.2c22.3,0,27.8,8.5,27.8,18c0,6.1-4,14.6-18.8,17.2v0.3
				c15,1.1,22.4,8.8,22.4,18c0,10.8-6.3,21.2-31.2,21.2h-33.3v-5.8H572.3z M606,43c12.1,0,16.9-5.6,16.9-14.5
				c0-7.8-3.8-12.4-16.4-12.4h-11.8V43H606z M606.1,79.2c14.6,0,20.2-4.8,20.2-16c0-8.7-6.4-14.7-20.7-14.7h-11v30.7H606.1z"/>
			<path class="st1" d="M641.6,72.5c0-3.3,1.1-6.7,3.6-9.2c4-4,9.5-5.5,19.6-7.1c7-1.1,8.2-1.4,8.2-3.3v-5.1
				c0-7.6-3.8-10.3-10.7-10.3c-4,0-7.5,1-9.9,3c2,1,3.1,2.9,3.1,5.3c0,3.3-2.3,5.9-6,5.9s-6.1-2.6-6.1-6.2c0-7.5,9.6-12.7,20.3-12.7
				c11.8,0,18.1,5.1,18.1,15.5v27c0,3.6,1.1,4.6,3.4,4.6c2,0,3.3-1.6,4.6-4.6l3.4,2c-2.6,5.9-5.5,8.6-10.7,8.6
				c-4.7,0-8.6-2.8-8.7-9.5h-0.3c-3.4,5.9-10.2,9.8-17.2,9.8C647,86,641.6,80.6,641.6,72.5z M672.9,68.9V58.6
				c-1,0.3-2.9,0.7-5.6,1.1c-11.7,1.8-16,4.2-16,11.1c0,5.7,3,9,9,9C666.4,79.9,672.9,74.8,672.9,68.9z"/>
			<path class="st1" d="M694.7,79.2h8.6V39.5h-8.6v-6H712v13.3c6.1-10.6,12.9-14.1,19.5-14.1c8.7,0,14,5.7,14,16.3v30.2h8.6v6h-25.4
				v-6h7.9V53c0-4.8-0.8-8.5-3-10.7c-1.6-1.7-3.9-2.4-6.5-2.4c-7.6,0-14.9,8.4-14.9,16.8v22.5h7.8v6h-25.4v-6H694.7z"/>
			<path class="st1" d="M788.2,53.8l17.9,25.4h6.5v6h-23.5v-5.9h6.9l-13.7-19.9l-8.4,8.5v11.3h7.1v6h-24.7v-6h8.6V12.5h-8.6V6.3H774
				v55.2l20.9-22.2h-8.6v-5.9h23.9v6h-7.8L788.2,53.8z"/>
			<path class="st1" d="M815.4,79.2h9.8V39.5h-9.8v-6H834v45.7h9.8v6h-28.4L815.4,79.2L815.4,79.2z M822.4,15.4
				c0-3.8,2.6-6.7,6.5-6.7c3.6,0,6.3,2.6,6.3,6.5s-2.8,6.5-6.3,6.5C825.2,21.8,822.4,19.4,822.4,15.4z"/>
			<path class="st1" d="M846.7,79.2h8.6V39.5h-8.6v-6H864v13.3c6.1-10.6,12.9-14.1,19.5-14.1c8.7,0,14,5.7,14,16.3v30.2h8.6v6h-25.4
				v-6h7.9V53c0-4.8-0.8-8.5-3-10.7c-1.6-1.7-3.9-2.4-6.5-2.4c-7.6,0-14.9,8.4-14.9,16.8v22.5h7.8v6h-25.4v-6H846.7z"/>
			<path class="st1" d="M930.9,66.2c-2.5,0-4.8-0.3-7-0.3c-3.7,0-6.1,2.3-6.1,4.7c0,3,3.2,4.6,9.1,4.6h13.7
				c10.7,0,15.2,4.5,15.2,11.6c0,9.2-9.4,16.9-25.9,16.9c-13.9,0-22.3-5.1-22.3-11.9c0-4.9,4.5-9.2,11-10.3V81
				c-6.2-1.8-8.5-4.7-8.5-8.4c0-3.8,4-7.6,9.8-8.8c-5.6-2.9-9.1-7.1-9.1-14.1c0-10.8,9-17,20.2-17c3,0,5.9,0.6,8.5,1.6
				c3.6-6.1,8.3-10.2,13.9-10.2c3.9,0,6.7,2.4,6.7,6c0,2.9-2.1,5.3-5.1,5.3c-2.9,0-4.6-1.8-4.6-4.6c0-0.3,0-0.7,0.1-1.1
				c-2.1-0.1-5.3,2.4-7.3,6.4c4.7,2.9,8,7.5,8,13.3C951.1,60.1,942.7,66.2,930.9,66.2z M947.8,89.1c0-4-2.5-6.4-8.2-6.4h-12.9
				c-6.9,0-10.8,2.9-10.8,8.2c0,4.6,3.9,8,14.2,8C940.9,98.8,947.8,94.8,947.8,89.1z M941.7,49.5c0-7-4.1-12.4-11.1-12.4
				c-6.5,0-10.6,4-10.6,12.5c0,8.4,4.6,12.3,11.4,12.3C937.9,61.8,941.7,57.5,941.7,49.5z"/>
			<path class="st1" d="M978.4,60.6h5.2c7.2,14.8,14.5,20.9,25.5,20.9c8.8,0,14.9-4.8,14.9-13.8c0-10.1-8.5-12.7-20.4-16
				c-12.1-3.2-24.1-7.1-24.1-21.8c0-11.8,9-21.4,23-21.4c7.5,0,14.8,3.2,19.2,8.3l2.3-7.9h5.6v24.7h-5.2
				c-5.9-14.6-13.8-19.6-22.5-19.6c-7.6,0-13.4,4.7-13.4,13.1c0,10.6,9.1,12.9,19.7,15.7c13,3.3,24.8,6.7,24.8,21.4
				c0,13.1-10.1,22.8-24.1,22.8c-9.3,0-16.8-3.4-22.3-9.3l-2.5,9h-5.6V60.6H978.4z"/>
			<path class="st1" d="M1038.2,59.8c0-16.1,10.8-27.2,24.9-27.2c14.7,0,24.9,10.6,24.9,26.4c0,16.1-10.8,27.2-24.9,27.2
				C1048.4,86.2,1038.2,75.6,1038.2,59.8z M1078.2,59.3c0-15-7-21.7-15.6-21.7c-8.5,0-14.8,6.9-14.8,21.8s7.1,21.7,15.7,21.7
				C1072,81.1,1078.2,74.2,1078.2,59.3z"/>
			<path class="st1" d="M1088.2,79.2h9.8V12.5h-9.8V6.3h18.7v72.9h9.6v6h-28.4v-6H1088.2z"/>
			<path class="st1" d="M1122,69.7V39.5h-8.5v-6h17.3v32.1c0,4.9,0.7,8.6,3,10.8c1.5,1.7,3.8,2.3,6.3,2.3c7.6,0,14.8-8.4,14.8-16.6
				V39.5h-8.8v-6h17.8v45.7h8.5v6h-17.2V72c-6.1,10.4-12.7,14.1-19.4,14.1C1127.2,86.1,1122,80.2,1122,69.7z"/>
			<path class="st1" d="M1189,18.9v14.9h16.9v5.6H1189V72c0,5.2,2,8,6.4,8c3.9,0,6.4-3,8.6-9.2l4.1,1.6c-2.9,10.1-8.3,13.8-15,13.8
				c-8.7,0-13.1-5.3-13.1-14V39.5h-10.4v-5.6h10.4V20.1L1189,18.9z"/>
			<path class="st1" d="M1209.8,79.2h9.8V39.5h-9.8v-6h18.6v45.7h9.8v6h-28.4V79.2z M1216.8,15.4c0-3.8,2.6-6.7,6.5-6.7
				c3.6,0,6.3,2.6,6.3,6.5s-2.8,6.5-6.3,6.5C1219.6,21.8,1216.8,19.4,1216.8,15.4z"/>
			<path class="st1" d="M1238.5,59.8c0-16.1,10.8-27.2,24.9-27.2c14.7,0,24.9,10.6,24.9,26.4c0,16.1-10.8,27.2-24.9,27.2
				C1248.7,86.2,1238.5,75.6,1238.5,59.8z M1278.5,59.3c0-15-7-21.7-15.6-21.7c-8.5,0-14.8,6.9-14.8,21.8s7.1,21.7,15.7,21.7
				C1272.3,81.1,1278.5,74.2,1278.5,59.3z"/>
			<path class="st1" d="M1290,79.2h8.6V39.5h-8.6v-6h17.3v13.3c6.1-10.6,12.9-14.1,19.5-14.1c8.7,0,14,5.7,14,16.3v30.2h8.6v6H1324
				v-6h7.9V53c0-4.8-0.8-8.5-3-10.7c-1.6-1.7-3.9-2.4-6.5-2.4c-7.6,0-14.9,8.4-14.9,16.8v22.5h7.8v6H1290V79.2z"/>
			<path class="st1" d="M1353,66.7h5.3c2.8,9.1,9,14.8,17.1,14.8c6.4,0,10.1-3.2,10.1-8c0-5.2-3.7-7.5-14-10.3
				c-12.6-3.6-17.6-7.7-17.6-15.6s7-14.9,17.3-14.9c5.9,0,10.8,2.2,13.4,6.2l1.3-6.2h5.1v17.7h-5.1c-3.6-8.4-7.1-13-14.8-13
				c-4.8,0-9.2,2.8-9.2,7.5c0,4.8,4.1,7.5,13.5,10.1c12.6,3.4,17.8,7,17.8,15.6c0,7.8-6.8,15.7-17.9,15.7c-7.1,0-12.6-2.9-16.1-7.2
				l-1.3,7.2h-5.1V66.7H1353z"/>
		</g>
	</g>
	<g>
		<linearGradient id="SVGID_1_" gradientUnits="userSpaceOnUse" x1="140.4364" y1="24.8049" x2="23.4365" y2="145.5549">
			<stop  offset="0" style="stop-color:#F6582D"/>
			<stop  offset="1" style="stop-color:#E61B17"/>
		</linearGradient>
		<path class="st2" d="M93.5,99.9h72.1c-2.7,15.7-9.8,30-20,41.5h-24.9c-3.9,0-7.4,2-9.4,5.4L99,168.3c-5.4,1.1-11,1.7-16.7,1.7
			c-10.2,0-20.1-1.8-29.2-5.2l36-62.3C90,100.8,91.7,99.9,93.5,99.9z M63.3,87.9l-36,62.4c-12.3-10.2-21.1-23.5-26-38l12.4-21.5
			c2-3.3,1.9-7.5,0-10.8L1.3,58.4C3.1,53.2,5.4,48,8.2,43.1c5.1-8.9,11.6-16.5,19-22.7l36,62.4C64.2,84.4,64.2,86.3,63.3,87.9z
			 M98.7,1.8l12.4,21.5c1.9,3.4,5.5,5.4,9.4,5.4h24.8c3.6,4.1,6.9,8.7,9.8,13.7c5.1,8.9,8.5,18.3,10.1,27.8h-72
			c-1.8,0-3.5-1-4.4-2.6l-36-62.4C67.7-0.2,83.6-1.2,98.7,1.8z"/>
	</g>
</g>
</svg>
